<?xml version="1.0" encoding="UTF-8"?>
<svg id="_레이어_2" data-name="레이어 2" xmlns="http://www.w3.org/2000/svg" viewBox="0 0 193.93 49.69">
  <defs>
    <style>
      .cls-1 {
        fill: #00ff73;
      }

      .cls-2 {
        fill: #fff;
      }
    </style>
  </defs>
  <g id="_레이어_1-2" data-name="레이어 1">
    <g>
      <path class="cls-2" d="M27.05,21.16c-3.62-.97-7.25-1.94-10.87-2.9-.85-.23-1.73-.46-2.45-.97-1.91-1.35-2.69-4.1-.94-5.86,1.36-1.36,3.53-1.69,5.36-1.71,2-.02,4.01.34,5.93.87,2.9.8,5.17,2.74,8.24,1.06,1.73-.95,4.66-5.01,2.44-6.79C28.25-.38,18.31-1.13,10.65,1.41,4.47,3.45.89,8.4.89,14.34c0,5.58,3.99,10.73,10.03,12.41,2.17.6,4.34,1.2,6.51,1.8,2.85.79,6.94,1.17,8.9,3.54.57.69,1.05,1.5,1.12,2.39.29,3.75-4.89,4.89-7.67,4.98-3.7.13-7.59-.94-10.52-3.25-2.9-2.28-6.67-2.23-8.41.5-5.27,8.26,15.23,16.6,29.08,10.1,5.94-2.79,8.67-8.57,7.87-14.24-.77-5.47-4.65-9.76-10.75-11.4Z"/>
      <path class="cls-2" d="M68.25.5c-13.34,0-24.15,10.81-24.15,24.15s10.81,24.15,24.15,24.15c5,0,9.64-1.52,13.5-4.12.15,2.79,2.44,5.01,5.27,5.01s5.3-2.37,5.3-5.3v-17.79c.05-.64.09-1.29.09-1.95,0-13.34-10.81-24.15-24.15-24.15ZM68.25,38.84c-7.84,0-14.19-6.35-14.19-14.19s6.35-14.19,14.19-14.19,14.19,6.35,14.19,14.19-6.35,14.19-14.19,14.19Z"/>
      <path class="cls-1" d="M138.47,1.24c-2.67-1.2-5.8-.02-7.01,2.65l-12.31,27.3-12.31-27.3c-1.2-2.67-4.34-3.85-7.01-2.65-2.67,1.2-3.85,4.34-2.65,7.01l17.11,37.95c.71,1.57,2.09,2.6,3.64,2.96.04,0,.08.02.12.03.23.05.47.07.7.09.13.01.26.03.39.03.13,0,.26-.02.39-.03.24-.02.47-.04.7-.09.04,0,.08-.02.12-.03,1.55-.36,2.94-1.4,3.64-2.96l17.11-37.95c1.2-2.67.02-5.8-2.65-7.01Z"/>
      <path class="cls-1" d="M190.81,1.24c-2.67-1.2-5.8-.02-7.01,2.65l-12.31,27.3-12.31-27.3c-1.2-2.67-4.34-3.85-7.01-2.65-2.67,1.2-3.85,4.34-2.65,7.01l17.11,37.95c.71,1.57,2.09,2.6,3.64,2.96.04,0,.08.02.12.03.23.05.47.07.7.09.13.01.26.03.39.03.13,0,.26-.02.39-.03.24-.02.47-.04.7-.09.04,0,.08-.02.12-.03,1.55-.36,2.94-1.4,3.64-2.96l17.11-37.95c1.2-2.67.02-5.8-2.65-7.01Z"/>
    </g>
  </g>
</svg>